<?xml version="1.0" encoding="UTF-8"?>
<svg version="1.1" xmlns="http://www.w3.org/2000/svg" width="512" height="512">
<path d="M0 0 C9.69205613 5.67450089 18.10042311 12.85138461 26.25 20.54296875 C26.99894531 21.22746094 27.74789063 21.91195312 28.51953125 22.6171875 C32.90476199 26.77202083 36.70416129 31.21965262 40.25 36.10546875 C40.67837158 36.69384521 41.10674316 37.28222168 41.5480957 37.88842773 C43.75725265 41.0377051 45.57316089 44.10253287 47.07421875 47.6484375 C51.22092855 57.12567587 55.57285665 61.06553915 65.25 64.98046875 C68.28603523 66.15581764 71.33117173 67.30064506 74.38525391 68.42822266 C78.56326723 70.05399467 82.49676971 72.03880213 86.4375 74.16796875 C87.12271729 74.53776855 87.80793457 74.90756836 88.51391602 75.28857422 C102.47151785 82.97300094 114.61138658 92.72766561 126.25 103.54296875 C127.35988281 104.53683594 127.35988281 104.53683594 128.4921875 105.55078125 C144.88380056 120.89239775 156.53504008 143.18456971 157.62890625 165.703125 C157.98938347 178.77354837 157.17347832 191.04397312 153.25 203.54296875 C152.92854004 204.57405762 152.92854004 204.57405762 152.60058594 205.62597656 C140.80375382 242.21847909 111.74687082 268.38248182 78.625 285.85546875 C77.62823242 286.38205078 76.63146484 286.90863281 75.60449219 287.45117188 C70.43922724 290.11346764 65.67538174 292.10428787 60.0625 293.54296875 C52.01129049 296.3360296 49.00767285 304.41040192 45.1484375 311.44921875 C41.370907 318.29268081 36.5861702 323.88032401 31.25 329.54296875 C30.78658203 330.04731445 30.32316406 330.55166016 29.84570312 331.07128906 C6.72377497 356.11211523 -25.96419291 371.42466095 -60.04296875 372.85546875 C-62.25759157 372.90757179 -64.47248369 372.94929662 -66.6875 372.98046875 C-67.7177832 373.00294678 -68.74806641 373.0254248 -69.80957031 373.04858398 C-82.07287745 373.0100512 -91.59747957 368.58523009 -100.75 360.54296875 C-109.04421875 351.72555253 -113.45965823 341.64036801 -114.875 329.66796875 C-114.96136719 328.97960937 -115.04773438 328.29125 -115.13671875 327.58203125 C-115.34659566 325.903016 -115.54907087 324.22307827 -115.75 322.54296875 C-116.75675781 323.11144531 -117.76351562 323.67992187 -118.80078125 324.265625 C-140.24869822 336.1446701 -161.74087424 342.76401241 -186.375 343.04296875 C-187.97420288 343.07088501 -187.97420288 343.07088501 -189.60571289 343.09936523 C-201.9582839 342.99983345 -211.51867109 338.6544786 -220.75 330.54296875 C-232.80888616 317.72341074 -234.92976716 303.51630598 -234.84765625 286.5078125 C-234.8462413 285.38854874 -234.84482635 284.26928497 -234.84336853 283.11610413 C-234.83780879 279.57086417 -234.82526385 276.02568934 -234.8125 272.48046875 C-234.80747979 270.06445404 -234.8029178 267.64843834 -234.79882812 265.23242188 C-234.78785257 259.3359156 -234.77115496 253.43944683 -234.75 247.54296875 C-241.43113555 245.73804324 -246.65468872 246.33461664 -252.75 249.54296875 C-257.60472212 252.55707526 -262.31444897 255.79023309 -267.03710938 259.00585938 C-280.86837732 268.24196087 -294.28027041 271.70561813 -310.83984375 269.046875 C-322.95188964 265.6600944 -332.53044927 258.63419542 -338.9921875 247.8984375 C-345.79211 234.918141 -349.79164703 220.84121138 -352.75 206.54296875 C-352.93691406 205.65440186 -353.12382812 204.76583496 -353.31640625 203.8503418 C-354.94340796 195.27735022 -355.14778094 186.79717972 -355.125 178.10546875 C-355.12478851 177.35896057 -355.12457703 176.61245239 -355.12435913 175.84332275 C-355.08923298 163.38269433 -354.0498824 151.60958325 -350.75 139.54296875 C-350.55744629 138.82560547 -350.36489258 138.10824219 -350.16650391 137.36914062 C-348.87852735 132.69067608 -347.3792175 128.11255275 -345.75 123.54296875 C-345.52586426 122.89602051 -345.30172852 122.24907227 -345.07080078 121.58251953 C-340.36536486 108.16355936 -333.96294059 96.82205213 -320.9765625 90.109375 C-309.53866697 84.69707323 -295.94022567 83.30979397 -283.625 86.91796875 C-275.75672182 89.99117435 -268.74117728 94.86981639 -261.75 99.54296875 C-260.84193604 100.14939209 -260.84193604 100.14939209 -259.91552734 100.76806641 C-257.30376133 102.51581147 -254.69752312 104.26997704 -252.10546875 106.046875 C-247.79758188 108.78306185 -243.71780807 108.86716352 -238.75 108.54296875 C-237.41326462 108.22355144 -236.07931638 107.89197712 -234.75 107.54296875 C-234.75444122 106.9306842 -234.75888245 106.31839966 -234.76345825 105.68756104 C-234.80801717 99.2625972 -234.83800034 92.83767792 -234.85986328 86.41259766 C-234.86986466 84.02097793 -234.88347009 81.62937025 -234.90087891 79.23779297 C-234.92538669 75.78219613 -234.93654208 72.32676224 -234.9453125 68.87109375 C-234.95563507 67.81746643 -234.96595764 66.76383911 -234.97659302 65.67828369 C-234.978894 50.13931595 -231.77759682 36.23207051 -220.9375 24.59765625 C-216.1156609 20.10634644 -210.81216432 17.07995601 -204.75 14.54296875 C-203.90953125 14.17558594 -203.0690625 13.80820313 -202.203125 13.4296875 C-186.56584346 9.41423172 -168.10249532 12.36590933 -152.75 16.54296875 C-152.07437012 16.7248877 -151.39874023 16.90680664 -150.70263672 17.09423828 C-141.0613677 19.78667153 -132.31896217 23.98571445 -123.50341797 28.62597656 C-120.93710481 29.96809188 -118.34422007 31.25585186 -115.75 32.54296875 C-115.60304687 31.11017578 -115.60304687 31.11017578 -115.453125 29.6484375 C-113.6969072 14.46320948 -109.63698327 1.63913913 -97.25 -8.39453125 C-93.31022633 -11.22899837 -89.24675938 -13.62179676 -84.75 -15.45703125 C-83.92371094 -15.81539062 -83.09742188 -16.17375 -82.24609375 -16.54296875 C-55.50476581 -23.53455617 -23.17788842 -13.02250128 0 0 Z " fill="#EF3800" transform="translate(354.75,78.45703125)"/>
<path d="M0 0 C0.83769928 0.00254791 1.67539856 0.00509583 2.53848267 0.00772095 C4.93602658 0.02032701 7.33308958 0.0437475 9.73046875 0.07421875 C10.431185 0.08178192 11.13190125 0.08934509 11.85385132 0.09713745 C16.57750277 0.18658518 21.14073397 0.66403342 25.8125 1.3125 C25.8125 1.6425 25.8125 1.9725 25.8125 2.3125 C24.93851562 2.49256592 24.93851562 2.49256592 24.046875 2.67626953 C-5.39403569 8.82715162 -28.0823135 19.52586848 -50.1875 40.3125 C-50.77789062 40.8384375 -51.36828125 41.364375 -51.9765625 41.90625 C-74.07879551 62.43723422 -87.94657469 95.44695183 -89.1328125 125.27734375 C-89.15085938 126.27894531 -89.16890625 127.28054687 -89.1875 128.3125 C-89.22617188 129.18003906 -89.26484375 130.04757813 -89.3046875 130.94140625 C-89.90920842 152.93925073 -85.11632196 175.68180058 -75.1875 195.3125 C-74.67445313 196.34890625 -74.16140625 197.3853125 -73.6328125 198.453125 C-57.45173427 229.92047529 -29.50024008 251.40867067 3.375 263.1875 C11.68638622 265.81549849 20.20191769 267.09932517 28.8125 268.3125 C28.8125 268.9725 28.8125 269.6325 28.8125 270.3125 C-23.68298376 270.73790442 -23.68298376 270.73790442 -41.03808594 268.56396484 C-43.05273022 268.32826702 -45.07769707 268.18610958 -47.1015625 268.05078125 C-56.02758672 267.26077681 -60.91234708 263.43242981 -67.1875 257.3125 C-68.31200185 256.26378851 -69.43702641 255.21563731 -70.5625 254.16796875 C-96.37812506 229.67786647 -111.86517237 197.96498647 -118.4375 163.25 C-118.68258301 161.97612427 -118.68258301 161.97612427 -118.93261719 160.67651367 C-120.38409935 152.47904379 -120.65791014 144.78593783 -121.1875 136.3125 C-150.3925 135.8175 -150.3925 135.8175 -180.1875 135.3125 C-179.8575 135.9725 -179.5275 136.6325 -179.1875 137.3125 C-179.05331566 139.62345251 -178.9558892 141.93656881 -178.875 144.25 C-177.57714412 170.25485489 -167.96625681 195.6787411 -152.1875 216.3125 C-151.51847656 217.20324219 -150.84945312 218.09398437 -150.16015625 219.01171875 C-143.19893454 228.01306089 -135.34854867 235.57707178 -126.1875 242.3125 C-126.8475 242.6425 -127.5075 242.9725 -128.1875 243.3125 C-129.8605957 242.65087891 -129.8605957 242.65087891 -131.86328125 241.5390625 C-132.60255859 241.13091309 -133.34183594 240.72276367 -134.10351562 240.30224609 C-134.89435547 239.85187988 -135.68519531 239.40151367 -136.5 238.9375 C-137.31017578 238.48068848 -138.12035156 238.02387695 -138.95507812 237.55322266 C-152.74777312 229.66739921 -165.2389334 220.22011767 -176.765625 209.29296875 C-180.49174907 206.24596084 -183.82639518 204.46098416 -188.625 203.9375 C-198.16139329 204.94133087 -205.77757655 211.53453505 -213.47460938 216.77539062 C-227.30587732 226.01149212 -240.71777041 229.47514938 -257.27734375 226.81640625 C-269.38938964 223.42962565 -278.96794927 216.40372667 -285.4296875 205.66796875 C-292.22961 192.68767225 -296.22914703 178.61074263 -299.1875 164.3125 C-299.37441406 163.42393311 -299.56132812 162.53536621 -299.75390625 161.61987305 C-301.38090796 153.04688147 -301.58528094 144.56671097 -301.5625 135.875 C-301.56228851 135.12849182 -301.56207703 134.38198364 -301.56185913 133.612854 C-301.52673298 121.15222558 -300.4873824 109.3791145 -297.1875 97.3125 C-296.99494629 96.59513672 -296.80239258 95.87777344 -296.60400391 95.13867188 C-295.31602735 90.46020733 -293.8167175 85.882084 -292.1875 81.3125 C-291.96336426 80.66555176 -291.73922852 80.01860352 -291.50830078 79.35205078 C-286.80286486 65.93309061 -280.40044059 54.59158338 -267.4140625 47.87890625 C-255.97616697 42.46660448 -242.37772567 41.07932522 -230.0625 44.6875 C-222.19422182 47.7607056 -215.17867728 52.63934764 -208.1875 57.3125 C-207.27943604 57.91892334 -207.27943604 57.91892334 -206.35302734 58.53759766 C-203.74126133 60.28534272 -201.13502312 62.03950829 -198.54296875 63.81640625 C-194.30272938 66.50962628 -190.10368491 67.06542922 -185.1875 66.3125 C-180.32561902 64.31513407 -176.61785416 60.85069745 -172.8125 57.3125 C-160.97096943 46.41538597 -147.41843727 37.7312509 -133.1875 30.3125 C-132.14078125 29.76078125 -131.0940625 29.2090625 -130.015625 28.640625 C-111.03450761 18.89899332 -91.55378393 12.56503518 -70.79467773 7.92358398 C-69.00340111 7.50373518 -67.21904343 7.05357327 -65.44165039 6.57836914 C-57.1686871 4.37024814 -48.86654864 3.10460612 -40.375 2.125 C-39.63647797 2.0381192 -38.89795593 1.9512384 -38.13705444 1.86172485 C-25.42134715 0.40384395 -12.7936352 -0.04436084 0 0 Z " fill="#FE641B" transform="translate(301.1875,120.6875)"/>
<path d="M0 0 C34.96694736 8.50742225 65.38214061 24.38296687 91.7890625 48.921875 C92.52898437 49.58445313 93.26890625 50.24703125 94.03125 50.9296875 C110.42286306 66.271304 122.07410258 88.56347596 123.16796875 111.08203125 C123.52844597 124.15245462 122.71254082 136.42287937 118.7890625 148.921875 C118.57475586 149.60926758 118.36044922 150.29666016 118.13964844 151.00488281 C105.95617404 188.79670805 75.62585032 214.97206434 41.41821289 232.72680664 C33.72706691 236.60689322 25.99519124 239.72281455 17.77978516 242.28515625 C15.68649069 242.95468188 13.619747 243.68075294 11.55078125 244.421875 C10.19273577 244.90111941 8.83466392 245.38028913 7.4765625 245.859375 C6.28417969 246.28089844 5.09179688 246.70242188 3.86328125 247.13671875 C0.72660088 247.93782771 -0.26685523 247.97028899 -3.2109375 246.921875 C-5.38807731 245.01578473 -7.39166716 243.11843661 -9.3984375 241.046875 C-9.97505127 240.45825684 -10.55166504 239.86963867 -11.14575195 239.26318359 C-32.8570035 216.84122803 -47.63782476 189.13155971 -55.2109375 158.921875 C-55.37754883 158.26509766 -55.54416016 157.60832031 -55.71582031 156.93164062 C-65.63006147 115.67361842 -54.79856402 71.28621621 -33.29589844 35.66601562 C-27.52866997 26.39484547 -20.4257992 18.08473009 -13.2109375 9.921875 C-12.76395508 9.40544434 -12.31697266 8.88901367 -11.85644531 8.35693359 C-10.58245673 6.89846545 -9.2722985 5.47183414 -7.9609375 4.046875 C-7.21328125 3.22445312 -6.465625 2.40203125 -5.6953125 1.5546875 C-3.2109375 -0.078125 -3.2109375 -0.078125 0 0 Z " fill="#FE641A" transform="translate(389.2109375,133.078125)"/>
<path d="M0 0 C9.69205613 5.67450089 18.10042311 12.85138461 26.25 20.54296875 C26.99894531 21.22746094 27.74789063 21.91195312 28.51953125 22.6171875 C39.62645849 33.1405634 47.0707676 46.19029014 54.25 59.54296875 C49.63253639 61.08212329 45.66007332 58.85460682 41.23046875 57.28125 C35.77492212 55.3996927 35.77492212 55.3996927 30.25 56.54296875 C28.19928336 58.22056073 26.44215901 59.82957938 24.625 61.73046875 C23.84394897 62.53460205 23.84394897 62.53460205 23.04711914 63.35498047 C4.62200483 82.67500501 -8.59065553 106.18960336 -16.75 131.54296875 C-17.03488281 132.39246094 -17.31976563 133.24195313 -17.61328125 134.1171875 C-19.48684942 140.23751019 -20.44671544 146.47418892 -21.375 152.79296875 C-21.4982666 153.62578369 -21.6215332 154.45859863 -21.74853516 155.31665039 C-22.82158064 163.08101756 -23.22450303 170.66051416 -23.75 178.54296875 C-63.35 178.21296875 -102.95 177.88296875 -143.75 177.54296875 C-142.58442612 153.06591735 -142.58442612 153.06591735 -140.6875 145.91796875 C-140.47125977 145.06444824 -140.25501953 144.21092773 -140.03222656 143.33154297 C-130.37911407 107.22890226 -106.11265159 77.42229582 -74 58.79296875 C-61.49833774 51.8195249 -47.79501577 47.19059291 -33.75 44.54296875 C-36.77636941 43.02978404 -39.92368875 43.33910199 -43.24609375 43.3046875 C-44.01380096 43.29489365 -44.78150818 43.28509979 -45.57247925 43.27500916 C-112.18233425 42.60627228 -181.09844076 57.88568357 -230.82421875 104.92578125 C-232.75 106.54296875 -232.75 106.54296875 -234.75 106.54296875 C-234.80110228 99.6419596 -234.83590093 92.74100004 -234.85986328 85.83984375 C-234.86986282 83.49672624 -234.88346683 81.15362102 -234.90087891 78.81054688 C-234.92539495 75.42444812 -234.93654391 72.03851569 -234.9453125 68.65234375 C-234.95563507 67.62059021 -234.96595764 66.58883667 -234.97659302 65.52581787 C-234.97893076 50.04840352 -231.72862768 36.17951311 -220.9375 24.59765625 C-216.1156609 20.10634644 -210.81216432 17.07995601 -204.75 14.54296875 C-203.90953125 14.17558594 -203.0690625 13.80820313 -202.203125 13.4296875 C-186.56584346 9.41423172 -168.10249532 12.36590933 -152.75 16.54296875 C-152.07437012 16.7248877 -151.39874023 16.90680664 -150.70263672 17.09423828 C-141.0613677 19.78667153 -132.31896217 23.98571445 -123.50341797 28.62597656 C-120.93710481 29.96809188 -118.34422007 31.25585186 -115.75 32.54296875 C-115.65203125 31.58777344 -115.5540625 30.63257813 -115.453125 29.6484375 C-113.6969072 14.46320948 -109.63698327 1.63913913 -97.25 -8.39453125 C-93.31022633 -11.22899837 -89.24675938 -13.62179676 -84.75 -15.45703125 C-83.92371094 -15.81539062 -83.09742188 -16.17375 -82.24609375 -16.54296875 C-55.50476581 -23.53455617 -23.17788842 -13.02250128 0 0 Z " fill="#FE641A" transform="translate(354.75,78.45703125)"/>
<path d="M0 0 C-1.5867456 5.59876091 -3.3813837 11.05509942 -5.4375 16.5 C-7.40153761 21.94251385 -8.92749579 27.35382875 -10.1875 33 C-10.34210693 33.68642578 -10.49671387 34.37285156 -10.65600586 35.08007812 C-13.14299319 46.74095516 -14.36891826 58.26632103 -14.3125 70.1875 C-14.30686035 71.45198975 -14.3012207 72.71647949 -14.29541016 74.01928711 C-14.0030066 96.74135984 -7.66533768 116.79383379 0 138 C-3.65386754 140.50256472 -7.31618187 142.9921132 -10.98632812 145.47070312 C-12.22984936 146.31300551 -13.47112861 147.15862887 -14.70996094 148.0078125 C-29.83109182 158.36542073 -43.56485551 163.47820904 -62.08984375 160.50390625 C-74.20188964 157.11712565 -83.78044927 150.09122667 -90.2421875 139.35546875 C-97.04211 126.37517225 -101.04164703 112.29824263 -104 98 C-104.18691406 97.11143311 -104.37382813 96.22286621 -104.56640625 95.30737305 C-106.19340796 86.73438147 -106.39778094 78.25421097 -106.375 69.5625 C-106.37478851 68.81599182 -106.37457703 68.06948364 -106.37435913 67.300354 C-106.33923298 54.83972558 -105.2998824 43.0666145 -102 31 C-101.80744629 30.28263672 -101.61489258 29.56527344 -101.41650391 28.82617188 C-100.12852735 24.14770733 -98.6292175 19.569584 -97 15 C-96.77586426 14.35305176 -96.55172852 13.70610352 -96.32080078 13.03955078 C-91.61536486 -0.37940939 -85.21294059 -11.72091662 -72.2265625 -18.43359375 C-44.58083682 -31.51528432 -22.22997093 -15.75891775 0 0 Z " fill="#FE641A" transform="translate(106,187)"/>
<path d="M0 0 C15.49839856 -0.02332946 30.99679582 -0.04097941 46.49520779 -0.05181217 C53.69090295 -0.05697503 60.88658722 -0.06401753 68.08227539 -0.07543945 C74.35184694 -0.0853866 80.62141061 -0.0918535 86.89098984 -0.09408849 C90.21265621 -0.09539555 93.53429466 -0.09899997 96.85595512 -0.10573006 C100.55819947 -0.11293628 104.26039631 -0.11399112 107.96264648 -0.11352539 C109.07178909 -0.11712067 110.1809317 -0.12071594 111.32368469 -0.12442017 C112.82767319 -0.12235817 112.82767319 -0.12235817 114.36204529 -0.12025452 C115.23867042 -0.12117631 116.11529554 -0.1220981 117.01848507 -0.12304783 C119 0 119 0 120 1 C120.16444986 3.48197478 120.27944241 5.95272967 120.375 8.4375 C122.70711398 53.17726548 143.89292636 93.3523388 176 124 C175 126 175 126 173.26708984 126.62255859 C170.6390474 127.22183907 168.0115103 127.81378332 165.375 128.375 C164.37766846 128.59051514 163.38033691 128.80603027 162.3527832 129.02807617 C148.54844467 131.87529304 133.12218658 135 119 135 C119 134.34 119 133.68 119 133 C117.97648437 133.02320313 116.95296875 133.04640625 115.8984375 133.0703125 C84.95079147 132.51213852 56.35626783 112.30163608 35.375 91.3828125 C21.08500712 76.33366374 12.06175764 58.39529505 5.6105957 38.83862305 C5.0609238 37.18345348 4.48148872 35.53823948 3.8984375 33.89453125 C1.32016377 25.5880059 0.90279134 16.66362059 0.44140625 8.01953125 C0.39794067 7.24339478 0.3544751 6.4672583 0.30969238 5.66760254 C0.20421831 3.77852561 0.10178701 1.88927919 0 0 Z " fill="#FE4B00" transform="translate(211,256)"/>
<path d="M0 0 C9.69205613 5.67450089 18.10042311 12.85138461 26.25 20.54296875 C26.99894531 21.22746094 27.74789063 21.91195312 28.51953125 22.6171875 C39.62645849 33.1405634 47.0707676 46.19029014 54.25 59.54296875 C50.18637202 60.89751141 47.39752305 59.54268226 43.5 58.23046875 C42.10964057 57.77522979 40.71901719 57.32079614 39.328125 56.8671875 C38.63920166 56.64144043 37.95027832 56.41569336 37.24047852 56.18310547 C23.28372983 51.69462331 8.88680471 48.39335778 -5.6953125 46.90234375 C-8.75 46.54296875 -8.75 46.54296875 -11.75 45.54296875 C-78.62566533 35.21982254 -156.27480118 48.55771935 -211.36279297 88.71875 C-218.19661241 93.77044404 -224.64361901 99.07899459 -230.82421875 104.92578125 C-232.75 106.54296875 -232.75 106.54296875 -234.75 106.54296875 C-234.80110228 99.6419596 -234.83590093 92.74100004 -234.85986328 85.83984375 C-234.86986282 83.49672624 -234.88346683 81.15362102 -234.90087891 78.81054688 C-234.92539495 75.42444812 -234.93654391 72.03851569 -234.9453125 68.65234375 C-234.95563507 67.62059021 -234.96595764 66.58883667 -234.97659302 65.52581787 C-234.97893076 50.04840352 -231.72862768 36.17951311 -220.9375 24.59765625 C-216.1156609 20.10634644 -210.81216432 17.07995601 -204.75 14.54296875 C-203.90953125 14.17558594 -203.0690625 13.80820313 -202.203125 13.4296875 C-186.56584346 9.41423172 -168.10249532 12.36590933 -152.75 16.54296875 C-152.07437012 16.7248877 -151.39874023 16.90680664 -150.70263672 17.09423828 C-141.0613677 19.78667153 -132.31896217 23.98571445 -123.50341797 28.62597656 C-120.93710481 29.96809188 -118.34422007 31.25585186 -115.75 32.54296875 C-115.65203125 31.58777344 -115.5540625 30.63257813 -115.453125 29.6484375 C-113.6969072 14.46320948 -109.63698327 1.63913913 -97.25 -8.39453125 C-93.31022633 -11.22899837 -89.24675938 -13.62179676 -84.75 -15.45703125 C-83.92371094 -15.81539062 -83.09742188 -16.17375 -82.24609375 -16.54296875 C-55.50476581 -23.53455617 -23.17788842 -13.02250128 0 0 Z " fill="#FE4B00" transform="translate(354.75,78.45703125)"/>
<path d="M0 0 C49.83 0 99.66 0 151 0 C151 9.02366127 151 9.02366127 150.3359375 12.15625 C150.18672852 12.86040039 150.03751953 13.56455078 149.88378906 14.29003906 C149.71588867 15.01932617 149.54798828 15.74861328 149.375 16.5 C149.19678711 17.27827148 149.01857422 18.05654297 148.83496094 18.85839844 C140.68300333 52.85937223 117.48804222 80.92805907 88.22265625 99.45703125 C83.18842071 102.5354853 78.0584604 105.43122271 72.875 108.25 C71.97386475 108.75281494 71.07272949 109.25562988 70.14428711 109.77368164 C69.28971924 110.22477295 68.43515137 110.67586426 67.5546875 111.140625 C66.41749268 111.75212402 66.41749268 111.75212402 65.25732422 112.37597656 C62.18508861 113.22527726 60.7836715 112.44731767 58 111 C55.71932673 109.40352871 53.54551863 107.79567533 51.375 106.0625 C50.76108398 105.57378418 50.14716797 105.08506836 49.51464844 104.58154297 C21.1629946 81.63685996 4.86944058 48.95621001 0.3125 13.0625 C-0.02154489 8.71991643 0 4.3554125 0 0 Z " fill="#FE4B00" transform="translate(361,256)"/>
<path d="M0 0 C0.70072632 0.00758835 1.40145264 0.0151767 2.12341309 0.022995 C6.84706076 0.1122661 11.41027946 0.58981665 16.08203125 1.23828125 C16.08203125 1.56828125 16.08203125 1.89828125 16.08203125 2.23828125 C15.499375 2.3583252 14.91671875 2.47836914 14.31640625 2.60205078 C-15.12450444 8.75293287 -37.81278225 19.45164973 -59.91796875 40.23828125 C-60.50835937 40.76421875 -61.09875 41.29015625 -61.70703125 41.83203125 C-83.80926426 62.36301547 -97.67704344 95.37273308 -98.86328125 125.203125 C-98.88132813 126.20472656 -98.899375 127.20632812 -98.91796875 128.23828125 C-98.95664063 129.10582031 -98.9953125 129.97335938 -99.03515625 130.8671875 C-99.63967717 152.86503198 -94.84679071 175.60758183 -84.91796875 195.23828125 C-84.40492188 196.2746875 -83.891875 197.31109375 -83.36328125 198.37890625 C-67.18220302 229.84625654 -39.23070883 251.33445192 -6.35546875 263.11328125 C1.95591747 265.74127974 10.47144894 267.02510642 19.08203125 268.23828125 C19.08203125 268.89828125 19.08203125 269.55828125 19.08203125 270.23828125 C-33.41345251 270.66368567 -33.41345251 270.66368567 -50.76855469 268.48974609 C-52.78319897 268.25404827 -54.80816582 268.11189083 -56.83203125 267.9765625 C-65.75805547 267.18655806 -70.64281583 263.35821106 -76.91796875 257.23828125 C-78.0424706 256.18956976 -79.16749516 255.14141856 -80.29296875 254.09375 C-103.06171255 232.49408455 -118.52067201 204.67268634 -125.91796875 174.23828125 C-126.11406738 173.45243652 -126.31016602 172.6665918 -126.51220703 171.85693359 C-136.27455602 131.28291895 -128.67880028 87.011694 -107.41796875 51.30078125 C-98.67916306 37.0605934 -88.31954249 23.48305525 -75.91796875 12.23828125 C-75.26062744 11.58069824 -74.60328613 10.92311523 -73.92602539 10.24560547 C-66.73125136 3.64059158 -59.60328581 2.53121276 -50.23046875 1.73828125 C-48.71112459 1.58626246 -47.19183856 1.43366174 -45.67260742 1.28051758 C-30.4839491 -0.14809668 -15.24296262 -0.19826355 0 0 Z " fill="#9CFAFC" transform="translate(310.91796875,120.76171875)"/>
<path d="M0 0 C4.63556918 1.13640102 9.20028482 2.40950832 13.76171875 3.8125 C14.61701172 4.06902344 15.47230469 4.32554687 16.35351562 4.58984375 C21.59480764 6.18102165 26.71601629 7.96051318 31.82421875 9.9375 C31.82421875 10.5975 31.82421875 11.2575 31.82421875 11.9375 C29.85557455 13.55202832 27.87900373 15.06501637 25.82421875 16.5625 C20.36176849 20.64525157 15.51102724 24.97318312 10.82421875 29.9375 C10.0353125 30.70835937 9.24640625 31.47921875 8.43359375 32.2734375 C-15.45937735 56.66715949 -27.46484875 89.97799021 -27.35424805 123.7590332 C-27.02395451 154.50855613 -16.73480135 185.63992317 3.82421875 208.9375 C4.53320312 209.76636719 5.2421875 210.59523438 5.97265625 211.44921875 C13.43815067 220.00179394 21.46417365 227.32934757 30.98828125 233.52734375 C31.59414063 233.99269531 32.2 234.45804688 32.82421875 234.9375 C32.82421875 235.5975 32.82421875 236.2575 32.82421875 236.9375 C27.94918399 238.67389549 23.06986588 240.39731506 18.18554688 242.10742188 C16.65943429 242.64389652 15.13459443 243.18401178 13.61132812 243.72851562 C11.58144247 244.45387643 9.54731309 245.1658466 7.51171875 245.875 C6.31933594 246.29652344 5.12695312 246.71804688 3.8984375 247.15234375 C0.76175713 247.95345271 -0.23169898 247.98591399 -3.17578125 246.9375 C-5.35292106 245.03140973 -7.35651091 243.13406161 -9.36328125 241.0625 C-9.93989502 240.47388184 -10.51650879 239.88526367 -11.1105957 239.27880859 C-32.82184725 216.85685303 -47.60266851 189.14718471 -55.17578125 158.9375 C-55.34239258 158.28072266 -55.50900391 157.62394531 -55.68066406 156.94726562 C-65.59490522 115.68924342 -54.76340777 71.30184121 -33.26074219 35.68164062 C-27.49351372 26.41047047 -20.39064295 18.10035509 -13.17578125 9.9375 C-12.72879883 9.42106934 -12.28181641 8.90463867 -11.82128906 8.37255859 C-10.54730048 6.91409045 -9.23714225 5.48745914 -7.92578125 4.0625 C-7.178125 3.24007812 -6.43046875 2.41765625 -5.66015625 1.5703125 C-3.17578125 -0.0625 -3.17578125 -0.0625 0 0 Z " fill="#9CFAFC" transform="translate(389.17578125,133.0625)"/>
<path d="M0 0 C30.03 0 60.06 0 91 0 C91.495 7.92 91.495 7.92 92 16 C92.3376637 19.11913811 92.69095331 22.16216744 93.1875 25.25 C93.3743335 26.41825317 93.3743335 26.41825317 93.56494141 27.61010742 C96.02855794 41.8590176 101.10066816 55.44599238 106 69 C102.34613246 71.50256472 98.68381813 73.9921132 95.01367188 76.47070312 C93.77015064 77.31300551 92.52887139 78.15862887 91.29003906 79.0078125 C76.16890818 89.36542073 62.43514449 94.47820904 43.91015625 91.50390625 C31.79811036 88.11712565 22.21955073 81.09122667 15.7578125 70.35546875 C8.92988045 57.32170512 5.12167991 43.30877455 2 29 C1.7525 27.90042969 1.505 26.80085938 1.25 25.66796875 C-0.48002457 16.88569126 0 9.32059382 0 0 Z " fill="#FE4B00" transform="translate(0,256)"/>
<path d="M0 0 C7.67536627 -0.02312821 15.35072896 -0.04091753 23.02612209 -0.05181217 C26.58977422 -0.05703995 30.15340257 -0.06413569 33.71704102 -0.07543945 C37.81006097 -0.08834176 41.9030558 -0.09322906 45.99609375 -0.09765625 C47.92418129 -0.10539818 47.92418129 -0.10539818 49.89122009 -0.11329651 C51.66294334 -0.11340981 51.66294334 -0.11340981 53.47045898 -0.11352539 C55.03932106 -0.11685631 55.03932106 -0.11685631 56.63987732 -0.12025452 C59 0 59 0 60 1 C60.11237599 3.14450852 60.18745773 5.29096009 60.25 7.4375 C61.51585398 32.83995117 68.7623637 57.77804599 81 80 C81.56460938 81.05445313 82.12921875 82.10890625 82.7109375 83.1953125 C92.26123572 100.36791447 106.56769269 118.16166965 123 129 C119.64382718 130.1111128 117.40300832 129.87125417 113.984375 129.06640625 C112.99236084 128.83381104 112.00034668 128.60121582 110.97827148 128.36157227 C109.91294189 128.09787842 108.8476123 127.83418457 107.75 127.5625 C106.64406494 127.29171631 105.53812988 127.02093262 104.39868164 126.74194336 C59.67149062 115.47527277 59.67149062 115.47527277 49 104 C47.5704569 102.69862283 46.14067834 101.3974403 44.70043945 100.10791016 C20.32647043 78.23151582 2.67707746 46.65919467 0.69580078 13.48266602 C0.60950859 11.86489282 0.52606636 10.24696536 0.4453125 8.62890625 C0.40156494 7.79717896 0.35781738 6.96545166 0.31274414 6.10852051 C0.20600716 4.07247596 0.10265932 2.03625422 0 0 Z " fill="#FE4B00" transform="translate(121,256)"/>
<path d="M0 0 C0.99 0.495 0.99 0.495 2 1 C1.16597656 1.75023437 0.33195312 2.50046875 -0.52734375 3.2734375 C-28.23637503 28.38913471 -46.05617753 59.94839558 -48.21875 97.83203125 C-48.24984995 101.2335881 -48.15604505 104.60211901 -48 108 C-47.9690625 109.23621094 -47.938125 110.47242188 -47.90625 111.74609375 C-46.82830151 138.9373444 -37.5403267 165.370342 -21 187 C-20.33097656 187.89074219 -19.66195312 188.78148437 -18.97265625 189.69921875 C-12.01143454 198.70056089 -4.16104867 206.26457178 5 213 C4.34 213.33 3.68 213.66 3 214 C1.3269043 213.33837891 1.3269043 213.33837891 -0.67578125 212.2265625 C-1.78469727 211.61433838 -1.78469727 211.61433838 -2.91601562 210.98974609 C-3.70685547 210.53937988 -4.49769531 210.08901367 -5.3125 209.625 C-6.52776367 208.93978271 -6.52776367 208.93978271 -7.76757812 208.24072266 C-21.56027312 200.35489921 -34.0514334 190.90761767 -45.578125 179.98046875 C-49.94756832 176.40739171 -53.69869202 174.58237941 -59.375 174.8125 C-60.24898437 174.83957031 -61.12296875 174.86664063 -62.0234375 174.89453125 C-62.67570312 174.92933594 -63.32796875 174.96414063 -64 175 C-70.47937738 161.98610161 -74.37397449 148.26857791 -77 134 C-77.16918945 133.13850342 -77.33837891 132.27700684 -77.51269531 131.3894043 C-83.50768262 98.9290683 -76.50624533 66.9118445 -64 37 C-63.05640625 37.08701172 -63.05640625 37.08701172 -62.09375 37.17578125 C-55.19750082 37.53928836 -51.31729857 36.36264844 -46 32 C-44.53180942 30.67752871 -43.07439711 29.34304203 -41.625 28 C-29.26429745 16.62512036 -14.99408379 7.49704189 0 0 Z " fill="#9DF9FC" transform="translate(170,150)"/>
<path d="M0 0 C0.70072632 0.00758835 1.40145264 0.0151767 2.12341309 0.022995 C6.84706076 0.1122661 11.41027946 0.58981665 16.08203125 1.23828125 C16.08203125 1.56828125 16.08203125 1.89828125 16.08203125 2.23828125 C15.499375 2.3583252 14.91671875 2.47836914 14.31640625 2.60205078 C-15.12450444 8.75293287 -37.81278225 19.45164973 -59.91796875 40.23828125 C-60.50835937 40.76421875 -61.09875 41.29015625 -61.70703125 41.83203125 C-87.61972272 65.90258825 -97.3735154 101.23513194 -99.91796875 135.23828125 C-109.81796875 135.23828125 -119.71796875 135.23828125 -129.91796875 135.23828125 C-129.91796875 88.87890755 -111.32797812 47.61238239 -78.765625 14.8203125 C-77.82589844 13.96824219 -76.88617188 13.11617187 -75.91796875 12.23828125 C-75.26062744 11.58069824 -74.60328613 10.92311523 -73.92602539 10.24560547 C-66.73125136 3.64059158 -59.60328581 2.53121276 -50.23046875 1.73828125 C-48.71112459 1.58626246 -47.19183856 1.43366174 -45.67260742 1.28051758 C-30.4839491 -0.14809668 -15.24296262 -0.19826355 0 0 Z " fill="#E4FBFB" transform="translate(310.91796875,120.76171875)"/>
<path d="M0 0 C4.63556918 1.13640102 9.20028482 2.40950832 13.76171875 3.8125 C14.61701172 4.06902344 15.47230469 4.32554687 16.35351562 4.58984375 C21.59480764 6.18102165 26.71601629 7.96051318 31.82421875 9.9375 C31.82421875 10.5975 31.82421875 11.2575 31.82421875 11.9375 C29.85557455 13.55202832 27.87900373 15.06501637 25.82421875 16.5625 C20.36176849 20.64525157 15.51102724 24.97318312 10.82421875 29.9375 C10.0353125 30.70835937 9.24640625 31.47921875 8.43359375 32.2734375 C-15.91683386 57.13420341 -25.47332655 89.05287566 -28.17578125 122.9375 C-38.07578125 122.9375 -47.97578125 122.9375 -58.17578125 122.9375 C-58.17578125 106.35745981 -58.17578125 106.35745981 -57.05078125 98.8125 C-56.91953857 97.92780029 -56.7882959 97.04310059 -56.65307617 96.1315918 C-51.3835699 63.32447792 -34.93112781 34.55138019 -13.17578125 9.9375 C-12.72879883 9.42106934 -12.28181641 8.90463867 -11.82128906 8.37255859 C-10.54730048 6.91409045 -9.23714225 5.48745914 -7.92578125 4.0625 C-7.178125 3.24007812 -6.43046875 2.41765625 -5.66015625 1.5703125 C-3.17578125 -0.0625 -3.17578125 -0.0625 0 0 Z " fill="#E4FCFC" transform="translate(389.17578125,133.0625)"/>
<path d="M0 0 C0.99 0.495 0.99 0.495 2 1 C1.16597656 1.75023437 0.33195312 2.50046875 -0.52734375 3.2734375 C-31.79638369 31.61595626 -45.52458941 64.29507289 -49 106 C-58.9 106 -68.8 106 -79 106 C-79 97.14576412 -78.75844378 89.28848952 -77.3125 80.6875 C-77.04348877 79.05965576 -77.04348877 79.05965576 -76.76904297 77.39892578 C-74.31351388 63.24018091 -69.52657924 50.21821013 -64 37 C-63.05640625 37.08701172 -63.05640625 37.08701172 -62.09375 37.17578125 C-55.19750082 37.53928836 -51.31729857 36.36264844 -46 32 C-44.53180942 30.67752871 -43.07439711 29.34304203 -41.625 28 C-29.26429745 16.62512036 -14.99408379 7.49704189 0 0 Z " fill="#E4FCFC" transform="translate(170,150)"/>
<path d="M0 0 C4.36492736 2.40706674 5.93942071 4.83284673 7.8125 9.4375 C8.54520346 14.47483626 7.62027557 18.24512573 5.20703125 22.63671875 C1.89427009 26.91454198 -2.56531496 28.20982491 -7.75 28.9375 C-13.40288342 28.11526241 -16.76270624 25.97189329 -20.625 21.8125 C-22.74799459 17.22683169 -22.97281421 13.40845798 -22.1875 8.4375 C-17.94121219 -0.73448168 -9.28591445 -3.97230785 0 0 Z " fill="#14219E" transform="translate(413.1875,212.5625)"/>
</svg>
